<svg width="182" height="43" viewBox="0 0 182 43" fill="none" xmlns="http://www.w3.org/2000/svg">
<g clip-path="url(#clip0_1_208)">
<g clip-path="url(#clip1_1_208)">
<mask id="mask0_1_208" style="mask-type:luminance" maskUnits="userSpaceOnUse" x="0" y="1" width="182" height="41">
<path d="M181.999 1.62215V41.4256H0.0557251V1.62215H181.999Z" fill="white"/>
</mask>
<g mask="url(#mask0_1_208)">
<path d="M20.2059 24.5083C20.2639 25.1563 20.1723 25.8089 19.9383 26.416C19.7043 27.023 19.3341 27.5682 18.8561 28.0096C14.532 32.0362 9.50456 35.2335 4.02435 37.4422C3.52328 37.6416 3.00034 37.781 2.46646 37.8573C2.28774 37.8952 2.10265 37.8914 1.92564 37.8461C1.74864 37.8008 1.58449 37.7152 1.44602 37.596C1.30755 37.4768 1.19849 37.3272 1.12735 37.1589C1.05622 36.9906 1.02493 36.8081 1.03594 36.6257C1.054 36.3727 1.10641 36.1232 1.19172 35.8843C2.63703 31.7451 7.58361 22.7582 9.68961 19.05C12.3221 14.415 19.2416 3.24598 20.2878 1.99285C20.3399 1.9263 20.4128 1.87915 20.4948 1.85895C20.5769 1.83874 20.6633 1.84665 20.7404 1.88141C20.9109 1.97125 21.044 2.07473 20.8734 2.68992C19.9683 6.0047 18.6492 13.2142 20.0137 23.0562C20.0877 23.5747 20.1536 24.0341 20.1911 24.4719" fill="#00ADEE"/>
<path d="M21.8741 29.24C22.4066 28.8664 23.0177 28.62 23.6604 28.5199C24.3032 28.4197 24.9603 28.4685 25.5812 28.6623C31.2272 30.3868 36.5072 33.1368 41.1567 36.7747C41.5797 37.109 41.9595 37.4922 42.2904 37.9175C42.4128 38.053 42.5022 38.2149 42.5517 38.3906C42.6012 38.5663 42.6095 38.7511 42.5758 38.9305C42.5421 39.11 42.4674 39.2792 42.3576 39.425C42.2477 39.5708 42.1056 39.6892 41.9424 39.7711C41.7077 39.883 41.4579 39.9603 41.201 40.0008C36.8912 40.8173 26.6342 41.0322 22.3699 41.0617C17.039 41.0617 3.91177 40.691 2.34706 40.3942C2.26368 40.384 2.18642 40.3452 2.12839 40.2845C2.07035 40.2237 2.03512 40.1448 2.02866 40.0611C2.02866 39.8677 2.02866 39.6972 2.65863 39.5346C5.98137 38.6658 12.8782 36.197 20.7245 30.1008C21.1327 29.7824 21.4659 29.4924 21.8661 29.24" fill="#00ADEE"/>
<path d="M25.1298 25.4214C24.5411 25.1479 24.023 24.7429 23.6155 24.2376C23.208 23.7323 22.9219 23.1402 22.7793 22.5069C21.4582 16.7528 21.2069 10.8047 22.0379 4.95966C22.1142 4.42579 22.2535 3.90284 22.4529 3.40178C22.5095 3.22833 22.6053 3.07026 22.7329 2.93986C22.8605 2.80947 23.0164 2.71027 23.1886 2.64998C23.3608 2.58969 23.5446 2.56993 23.7256 2.59224C23.9067 2.61455 24.0802 2.67833 24.2326 2.77862C24.4395 2.9219 24.6283 3.08906 24.7966 3.27555C27.6508 6.60625 32.9545 15.3793 35.1196 19.05C37.8192 23.6555 44.0189 35.2327 44.5681 36.7451C44.6021 36.8225 44.6081 36.9094 44.5851 36.9907C44.5621 37.072 44.5114 37.1428 44.4419 37.1909C44.2782 37.3023 44.1155 37.3615 43.7005 36.9089C41.2829 34.4686 35.6984 29.7301 26.4955 25.9775C26.0122 25.7842 25.5824 25.6136 25.1741 25.4203" fill="#00ADEE"/>
<path d="M19.8261 23.6623C20.0115 25.5386 20.107 26.5165 18.5798 28.1119C15.659 30.8495 12.4227 33.2297 8.93908 35.202C7.09169 36.2894 5.16259 37.2315 3.1692 38.0199C1.86376 38.4872 0.773242 38.6874 0.201258 37.7458C0.0692746 37.489 0.000427246 37.2044 0.000427246 36.9157C0.000427246 36.627 0.0692746 36.3424 0.201258 36.0856C1.61132 32.2579 5.69025 25.1087 8.36027 20.4589L9.19835 18.975C13.2841 11.9292 18.698 3.30511 19.759 1.91779C19.9148 1.71765 20.1968 1.47999 20.4561 1.62896C20.5387 1.69094 20.6006 1.77647 20.6337 1.8743C20.6667 1.97212 20.6694 2.07767 20.6414 2.17706C20.6414 2.21459 20.5675 2.46703 20.5448 2.56369C18.7947 9.68222 18.9801 16.6529 19.8034 23.6247" fill="#00ADEE"/>
<path d="M25.7973 25.8581C24.0768 25.0735 23.1796 24.6641 22.5564 22.5433C21.6411 18.6551 21.1929 14.6716 21.2214 10.6772C21.2066 8.53371 21.3556 6.39019 21.6672 4.26942C21.9116 2.90485 22.2903 1.85867 23.3797 1.85867C23.6669 1.87525 23.9462 1.95924 24.195 2.10386C24.4437 2.24847 24.6549 2.44964 24.8114 2.69106C27.4222 5.83527 31.5751 12.9333 34.2747 17.524C34.5567 17.9982 34.8376 18.4883 35.1196 19.0068C39.1837 26.0673 43.945 35.0701 44.6056 36.6871C44.7023 36.9168 44.7683 37.2807 44.509 37.4286C44.4129 37.4682 44.3072 37.4781 44.2054 37.457C44.1037 37.4359 44.0106 37.3848 43.9381 37.3103L43.6561 37.0431C38.3684 31.9555 32.2278 28.6327 25.7973 25.8581Z" fill="#00ADEE"/>
<path d="M20.9098 29.9223C22.445 28.8249 23.2455 28.2541 25.397 28.7737C29.2272 29.9323 32.9048 31.5457 36.3511 33.5793C38.2156 34.6366 39.9956 35.8365 41.6752 37.1681C42.7362 38.0585 43.4549 38.9114 42.9068 39.8529C42.7493 40.0946 42.5367 40.2952 42.2863 40.4384C42.036 40.5816 41.7552 40.6631 41.4671 40.6762C37.4485 41.3653 29.2235 41.4177 23.8687 41.4177H22.1857C14.0278 41.4177 3.85948 41.0242 2.16059 40.7945C1.91042 40.7945 1.56927 40.6387 1.56927 40.3351C1.58272 40.2331 1.62658 40.1376 1.69514 40.0609C1.76371 39.9842 1.85378 39.93 1.95363 39.9053L2.3323 39.7938C9.37805 37.7538 15.3253 34.0979 20.9474 29.9154" fill="#00ADEE"/>
<path d="M55.5143 25.2952L56.6116 24.1967L53.5561 21.1424C53.4086 21.0071 53.2145 20.934 53.0144 20.9384C52.8143 20.9427 52.6236 21.0241 52.4821 21.1657C52.3405 21.3072 52.2591 21.4979 52.2548 21.698C52.2504 21.8981 52.3235 22.0922 52.4588 22.2397L55.5143 25.2952Z" fill="white"/>
<path d="M58.8006 26.3846L62.9751 22.2022C63.0514 22.1326 63.1123 22.0479 63.154 21.9534C63.1957 21.8589 63.2173 21.7568 63.2173 21.6535C63.2173 21.5503 63.1957 21.4481 63.154 21.3536C63.1123 21.2592 63.0514 21.1744 62.9751 21.1049C62.8282 20.962 62.6313 20.882 62.4264 20.882C62.2215 20.882 62.0246 20.962 61.8777 21.1049L57.7021 25.2873L56.6048 26.3846L52.4883 30.5011C52.4131 30.5706 52.3531 30.6549 52.312 30.7488C52.271 30.8426 52.2498 30.9439 52.2498 31.0463C52.2498 31.1488 52.271 31.2501 52.312 31.3439C52.3531 31.4377 52.4131 31.5221 52.4883 31.5916C52.5578 31.6682 52.6426 31.7295 52.7372 31.7714C52.8318 31.8133 52.9341 31.835 53.0376 31.835C53.141 31.835 53.2433 31.8133 53.3379 31.7714C53.4325 31.7295 53.5173 31.6682 53.5868 31.5916L57.7033 27.4831L61.8481 31.628C61.9949 31.7711 62.1918 31.8513 62.3968 31.8513C62.6018 31.8513 62.7987 31.7711 62.9455 31.628C63.0218 31.5584 63.0828 31.4737 63.1245 31.3792C63.1662 31.2847 63.1877 31.1826 63.1877 31.0793C63.1877 30.976 63.1662 30.8739 63.1245 30.7794C63.0828 30.685 63.0218 30.6002 62.9455 30.5306L58.8006 26.3846Z" fill="white"/>
<path d="M80.4632 20.4146C80.5951 20.8615 80.7873 21.2879 81.0341 21.6837C81.2638 22.0396 81.5754 22.4842 81.9688 23.0107C82.3668 23.5145 82.7364 24.0421 83.0741 24.5913C83.388 25.1167 83.637 25.6796 83.8155 26.2663C84.0293 27.0086 84.1316 27.7785 84.1192 28.5509C84.1403 29.6138 83.8848 30.664 83.3777 31.5984C82.9324 32.4157 82.2566 33.084 81.4344 33.5202C80.5809 33.9563 79.634 34.1777 78.6756 34.165C77.7242 34.18 76.7839 33.958 75.9397 33.5191C75.1264 33.0855 74.4582 32.4229 74.0179 31.6132C73.5278 30.674 73.2877 29.6245 73.3208 28.5657C73.3299 27.8151 73.4232 27.0692 73.6028 26.3403L76.5697 26.4449C76.4316 27.0658 76.3618 27.6999 76.3615 28.3359C76.3174 29.1515 76.5358 29.9598 76.9847 30.6421C77.1778 30.9182 77.4374 31.1411 77.7396 31.2901C78.0417 31.4392 78.3766 31.5097 78.7132 31.4949C79.0342 31.5112 79.3547 31.4527 79.6493 31.3241C79.9439 31.1954 80.2046 31.0001 80.4109 30.7535C80.8658 30.1042 81.0909 29.3207 81.0489 28.5281C81.0667 27.8449 80.9246 27.1669 80.6338 26.5484C80.2722 25.8652 79.8478 25.2173 79.3659 24.6129C78.9504 24.0889 78.5686 23.5389 78.2231 22.9664C77.8956 22.4176 77.6461 21.8259 77.4816 21.2083C77.2756 20.4199 77.1904 19.6047 77.2292 18.7908H80.2483C80.2415 19.34 80.3165 19.887 80.4701 20.4146" fill="white"/>
<path d="M88.7621 33.5338C87.9613 33.1525 87.2906 32.5438 86.8335 31.7838C86.3831 31.0126 86.1522 30.1329 86.166 29.24C86.162 28.8158 86.2093 28.3928 86.307 27.98L89.2738 28.0983C89.2147 28.3786 89.1872 28.6647 89.1919 28.9511C89.1705 29.3071 89.2206 29.6637 89.3391 30C89.4576 30.3363 89.6423 30.6455 89.8822 30.9093C90.1208 31.1532 90.4074 31.345 90.7239 31.4726C91.0404 31.6002 91.3799 31.6609 91.7209 31.6507C92.3831 31.681 93.0306 31.4494 93.5233 31.006C93.7514 30.7849 93.9295 30.5176 94.0459 30.2221C94.1622 29.9265 94.2139 29.6095 94.1976 29.2923C94.2152 28.9905 94.1674 28.6885 94.0575 28.4068C93.9476 28.1252 93.7782 27.8706 93.5608 27.6605C93.0571 27.2473 92.4155 27.0405 91.7653 27.0817H90.9716V24.5925H91.9722C92.5033 24.622 93.0275 24.4674 93.4562 24.1535C93.6301 24.0057 93.7675 23.8197 93.8576 23.61C93.9477 23.4003 93.9882 23.1726 93.9759 22.9447C93.9801 22.7086 93.9331 22.4744 93.8383 22.2581C93.7435 22.0418 93.6031 21.8486 93.4267 21.6916C93.0163 21.3331 92.4887 21.1376 91.9438 21.1424L92.0996 18.6657C92.9902 18.6455 93.8734 18.8307 94.6809 19.2069C95.3841 19.5271 95.9808 20.0421 96.4003 20.6909C96.8131 21.3448 97.0257 22.1055 97.0087 22.8788C97.0183 23.5471 96.841 24.2048 96.4969 24.7778C96.1387 25.3464 95.5986 25.7785 94.9618 26.0003C95.6565 26.2222 96.2451 26.6922 96.6152 27.3205C97.0348 28.0028 97.2486 28.7897 97.2315 29.5902C97.2457 30.425 97.0191 31.2461 96.5788 31.9555C96.1122 32.6751 95.4476 33.2445 94.665 33.5952C93.7351 34.0199 92.7201 34.2253 91.6982 34.1957C90.6738 34.2225 89.6576 34.0066 88.7325 33.5657" fill="white"/>
<path d="M106.59 20.4146C106.72 20.8613 106.909 21.2882 107.154 21.6836C107.384 22.0396 107.696 22.4842 108.089 23.0107C108.487 23.5145 108.857 24.0421 109.194 24.5913C109.512 25.1144 109.761 25.6784 109.936 26.2663C110.152 27.0078 110.255 27.7787 110.239 28.5509C110.261 29.6138 110.005 30.664 109.498 31.5984C109.05 32.4158 108.372 33.084 107.548 33.5202C106.695 33.9571 105.747 34.1784 104.789 34.1649C103.837 34.1803 102.896 33.9583 102.052 33.519C101.241 33.0852 100.576 32.4224 100.139 31.6132C99.6466 30.6747 99.4038 29.6252 99.4342 28.5656C99.4422 27.8151 99.5365 27.0692 99.7162 26.3403L102.682 26.4437C102.55 27.0659 102.483 27.7 102.482 28.3359C102.442 29.1408 102.658 29.9377 103.098 30.6125C103.293 30.8881 103.554 31.1106 103.857 31.2595C104.16 31.4085 104.496 31.4793 104.833 31.4654C105.154 31.4823 105.473 31.424 105.767 31.2953C106.06 31.1665 106.32 30.9709 106.524 30.7239C106.986 30.0769 107.21 29.2911 107.161 28.4986C107.183 27.815 107.04 27.1362 106.746 26.5188C106.385 25.8356 105.96 25.1877 105.478 24.5834C105.065 24.0575 104.684 23.5077 104.336 22.9368C104.015 22.3849 103.766 21.7941 103.595 21.1788C103.393 20.3897 103.308 19.5751 103.343 18.7612H106.367C106.362 19.3104 106.437 19.8574 106.591 20.385" fill="white"/>
<path d="M121.379 32.3705C120.557 32.0303 119.672 31.8683 118.783 31.8952H113.769V29.671H115.289C114.331 29.1187 113.542 28.316 113.006 27.3489C112.432 26.331 112.135 25.1801 112.145 24.0114C112.113 22.9717 112.329 21.9394 112.776 21.0002C113.147 20.2497 113.734 19.6243 114.459 19.2058C115.174 18.8115 115.979 18.6097 116.795 18.6202C117.529 18.6137 118.254 18.7842 118.909 19.1171C119.537 19.4149 120.043 19.9207 120.341 20.5488C120.674 19.9324 121.193 19.4366 121.823 19.1319C122.501 18.7874 123.251 18.6118 124.011 18.6202C124.878 18.6058 125.734 18.8154 126.496 19.2286C127.226 19.6205 127.832 20.2085 128.246 20.9263C128.68 21.6996 128.901 22.5752 128.884 23.4621C128.899 24.3299 128.673 25.1848 128.231 25.932C127.804 26.6511 127.182 27.2349 126.437 27.6161C125.638 28.0223 124.752 28.2261 123.856 28.2097C122.958 28.2262 122.07 28.0253 121.267 27.6241C120.528 27.2534 119.903 26.6895 119.458 25.9923C119.016 25.2754 118.789 24.4464 118.805 23.6043V23.1961C118.832 22.6641 118.672 22.1397 118.353 21.7132C118.209 21.5303 118.023 21.3839 117.812 21.2859C117.6 21.1879 117.369 21.1411 117.136 21.1492C116.863 21.1397 116.592 21.1993 116.348 21.3226C116.105 21.4459 115.896 21.6287 115.742 21.8542C115.351 22.5108 115.172 23.2721 115.23 24.0341C115.181 24.7375 115.28 25.4433 115.52 26.1063C115.76 26.7692 116.136 27.3746 116.624 27.8834C117.56 28.7707 118.773 29.3078 120.059 29.4037L120.726 29.4697C122.019 29.5538 123.255 30.0298 124.271 30.8343C124.719 31.2281 125.083 31.7099 125.338 32.2497C125.593 32.7895 125.735 33.376 125.755 33.9728H122.691C122.637 33.6216 122.493 33.2904 122.273 33.011C122.054 32.7316 121.766 32.5134 121.438 32.3774L121.379 32.3705ZM125.369 25.0576C125.764 24.5993 125.968 24.008 125.94 23.4042C125.968 22.7849 125.756 22.1787 125.346 21.7132C125.159 21.5088 124.929 21.3477 124.673 21.2413C124.417 21.1348 124.141 21.0855 123.863 21.0969C123.587 21.0889 123.311 21.1397 123.055 21.2459C122.8 21.3522 122.569 21.5114 122.38 21.7132C122.006 22.1803 121.802 22.7609 121.802 23.3592C121.802 23.9576 122.006 24.5381 122.38 25.0053C122.568 25.2097 122.798 25.3716 123.054 25.4805C123.309 25.5893 123.586 25.6424 123.863 25.6364C124.14 25.6466 124.416 25.5969 124.672 25.4905C124.928 25.3841 125.158 25.2236 125.346 25.02" fill="white"/>
<path d="M133.245 33.535C132.464 33.1496 131.808 32.5502 131.354 31.8065C130.901 31.0416 130.67 30.1661 130.686 29.2775C130.69 28.7135 130.78 28.1529 130.952 27.6161L133.852 27.7344C133.765 28.1495 133.716 28.5713 133.704 28.9966C133.671 29.6652 133.897 30.3208 134.334 30.8274C134.56 31.0584 134.832 31.2387 135.132 31.3564C135.433 31.474 135.755 31.5263 136.078 31.5097C136.404 31.5367 136.733 31.4912 137.04 31.3765C137.347 31.2618 137.625 31.0807 137.853 30.8462C138.082 30.6116 138.257 30.3294 138.364 30.0197C138.471 29.71 138.508 29.3805 138.473 29.0546V23.4337C138.472 22.9992 138.344 22.5745 138.105 22.2115C137.866 21.8486 137.527 21.5632 137.128 21.3903C136.729 21.2185 136.289 21.1673 135.861 21.2431C135.433 21.3189 135.037 21.5183 134.721 21.8167C134.525 22.028 134.374 22.2772 134.277 22.549C134.18 22.8202 134.139 23.1085 134.157 23.3962C134.153 23.6826 134.181 23.9685 134.239 24.2491L131.213 24.3309C131.132 23.8882 131.092 23.4391 131.093 22.9891C131.078 22.1624 131.32 21.3513 131.784 20.667C132.254 19.9885 132.903 19.4542 133.66 19.1239C134.494 18.7583 135.397 18.5764 136.307 18.5906C137.225 18.5755 138.134 18.7736 138.962 19.1694C139.726 19.5351 140.368 20.1146 140.809 20.8376C141.266 21.62 141.498 22.5126 141.477 23.4189V29.0546C141.499 29.9961 141.274 30.9271 140.824 31.7542C140.397 32.5217 139.748 33.1423 138.962 33.535C138.061 33.9759 137.066 34.1921 136.063 34.165C135.086 34.1877 134.118 33.9716 133.245 33.535Z" fill="white"/>
<path d="M146.756 33.5191C145.962 33.1159 145.301 32.493 144.851 31.7246C144.402 30.921 144.174 30.0126 144.191 29.0922C144.177 28.1757 144.393 27.2703 144.821 26.4597C145.23 25.7005 145.851 25.0767 146.609 24.6641C147.424 24.2257 148.339 24.0062 149.264 24.0273C149.845 24.0215 150.422 24.1297 150.962 24.3457C151.439 24.5368 151.866 24.837 152.208 25.2213V23.1961C152.214 22.8946 152.15 22.5958 152.021 22.3231C151.892 22.0503 151.703 21.8109 151.467 21.6234C150.961 21.2647 150.358 21.0684 149.738 21.0604C149.118 21.0525 148.51 21.2334 147.995 21.579C147.789 21.7268 147.619 21.92 147.5 22.1439C147.38 22.3677 147.314 22.6161 147.306 22.8697L144.227 22.7662C144.225 21.9768 144.487 21.2092 144.97 20.5852C145.479 19.9225 146.158 19.41 146.935 19.1023C147.813 18.7439 148.754 18.5648 149.702 18.5758C150.669 18.5623 151.628 18.7675 152.505 19.1763C153.304 19.5425 153.985 20.1255 154.47 20.8592C154.958 21.587 155.217 22.4455 155.211 23.3223V28.9807C155.242 29.6809 155.126 30.3798 154.871 31.0326C154.615 31.6853 154.226 32.2774 153.728 32.7708C153.18 33.2593 152.541 33.6345 151.847 33.8749C151.153 34.1154 150.419 34.2163 149.686 34.1718C148.659 34.2017 147.641 33.9803 146.72 33.527L146.756 33.5191ZM151.481 30.9605C151.707 30.7499 151.886 30.4935 152.005 30.2083C152.124 29.9231 152.18 29.6159 152.17 29.3071V28.9204C152.179 28.6086 152.122 28.2984 152.003 28.0099C151.885 27.7214 151.707 27.461 151.481 27.2454C150.99 26.811 150.349 26.5825 149.694 26.6075C149.353 26.5869 149.012 26.6362 148.692 26.7524C148.371 26.8685 148.077 27.049 147.829 27.2828C147.581 27.5166 147.383 27.7988 147.247 28.1119C147.112 28.425 147.042 28.7624 147.042 29.1035C147.042 29.4446 147.112 29.7821 147.247 30.0952C147.383 30.4083 147.581 30.6904 147.829 30.9242C148.077 31.158 148.371 31.3385 148.692 31.4547C149.012 31.5708 149.353 31.6201 149.694 31.5996C150.35 31.6244 150.99 31.3955 151.481 30.9605Z" fill="white"/>
<path d="M158.422 30.4635C158.214 29.1741 158.115 27.8693 158.126 26.5631V24.2263C158.098 23.1711 158.335 22.1256 158.815 21.1856C159.243 20.3635 159.903 19.6854 160.714 19.2354C161.559 18.796 162.498 18.5667 163.45 18.5667C164.403 18.5667 165.342 18.796 166.187 19.2354C166.995 19.6819 167.655 20.355 168.086 21.1719C168.566 22.1044 168.802 23.1415 168.775 24.1899V26.5631C168.785 27.8768 168.686 29.1891 168.478 30.4863C168.285 31.6649 168.005 32.8276 167.64 33.9648H164.719C165.422 31.6007 165.776 29.1479 165.772 26.6814V24.3457C165.827 23.5298 165.61 22.7187 165.157 22.0384C164.953 21.7839 164.695 21.5784 164.402 21.437C164.108 21.2957 163.787 21.2222 163.461 21.222C163.136 21.222 162.814 21.2954 162.521 21.4367C162.227 21.5781 161.97 21.7838 161.767 22.0384C161.315 22.7278 161.099 23.5449 161.152 24.3673V26.6814C161.147 29.1475 161.502 31.601 162.205 33.9648H159.238C158.877 32.8186 158.597 31.6487 158.4 30.4635" fill="white"/>
<path d="M178.373 20.4146C178.502 20.8615 178.692 21.2879 178.937 21.6837C179.166 22.0396 179.478 22.4842 179.871 23.0107C180.27 23.5145 180.639 24.0421 180.975 24.5913C181.673 25.7924 182.027 27.1621 181.999 28.5509C182.02 29.6138 181.765 30.6641 181.257 31.5984C180.814 32.417 180.138 33.0858 179.314 33.5202C178.461 33.9571 177.514 34.1784 176.555 34.165C175.604 34.1801 174.664 33.9581 173.819 33.5191C173.007 33.0853 172.339 32.4227 171.899 31.6132C171.408 30.6742 171.168 29.6245 171.202 28.5657C171.21 27.8151 171.304 27.0692 171.483 26.3403L174.449 26.4449C174.315 27.0664 174.246 27.7001 174.242 28.3359C174.198 29.1514 174.416 29.9595 174.864 30.6421C175.058 30.9189 175.319 31.1422 175.623 31.2912C175.926 31.4403 176.262 31.5104 176.6 31.4949C176.92 31.5103 177.239 31.4514 177.532 31.3228C177.826 31.1941 178.085 30.9993 178.291 30.7535C178.749 30.1053 178.974 29.3207 178.929 28.5281C178.95 27.8445 178.808 27.1657 178.514 26.5484C178.152 25.8652 177.727 25.2173 177.246 24.6129C176.83 24.089 176.449 23.539 176.104 22.9664C175.782 22.4145 175.533 21.8237 175.361 21.2083C175.155 20.4199 175.071 19.6047 175.11 18.7908H178.135C178.129 19.34 178.204 19.8872 178.358 20.4146" fill="white"/>
<mask id="mask1_1_208" style="mask-type:luminance" maskUnits="userSpaceOnUse" x="0" y="1" width="182" height="41">
<path d="M181.999 1.62215V41.4256H0.0557251V1.62215H181.999Z" fill="white"/>
</mask>
<g mask="url(#mask1_1_208)">
<path d="M20.2059 24.5083C20.2639 25.1563 20.1723 25.8089 19.9383 26.416C19.7043 27.023 19.3341 27.5682 18.8561 28.0096C14.532 32.0362 9.50456 35.2335 4.02435 37.4422C3.52328 37.6416 3.00034 37.781 2.46646 37.8573C2.28774 37.8952 2.10265 37.8914 1.92564 37.8461C1.74864 37.8008 1.58449 37.7152 1.44602 37.596C1.30755 37.4768 1.19849 37.3272 1.12735 37.1589C1.05622 36.9906 1.02493 36.8081 1.03594 36.6257C1.054 36.3727 1.10641 36.1232 1.19172 35.8843C2.63703 31.7451 7.58361 22.7582 9.68961 19.05C12.3221 14.415 19.2416 3.24598 20.2878 1.99285C20.3399 1.9263 20.4128 1.87915 20.4948 1.85895C20.5769 1.83874 20.6633 1.84665 20.7404 1.88141C20.9109 1.97125 21.044 2.07473 20.8734 2.68992C19.9683 6.0047 18.6492 13.2142 20.0137 23.0562C20.0877 23.5747 20.1536 24.0341 20.1911 24.4719" fill="#00ADEE"/>
<path d="M21.8741 29.24C22.4066 28.8664 23.0177 28.62 23.6604 28.5199C24.3032 28.4197 24.9603 28.4685 25.5812 28.6623C31.2272 30.3868 36.5072 33.1368 41.1567 36.7747C41.5797 37.109 41.9595 37.4922 42.2904 37.9175C42.4128 38.053 42.5022 38.2149 42.5517 38.3906C42.6012 38.5663 42.6095 38.7511 42.5758 38.9305C42.5421 39.11 42.4674 39.2792 42.3576 39.425C42.2477 39.5708 42.1056 39.6892 41.9424 39.7711C41.7077 39.883 41.4579 39.9603 41.201 40.0008C36.8912 40.8173 26.6342 41.0322 22.3699 41.0617C17.039 41.0617 3.91177 40.691 2.34706 40.3942C2.26368 40.384 2.18642 40.3452 2.12839 40.2845C2.07035 40.2237 2.03512 40.1448 2.02866 40.0611C2.02866 39.8677 2.02866 39.6972 2.65863 39.5346C5.98137 38.6658 12.8782 36.197 20.7245 30.1008C21.1327 29.7824 21.4659 29.4924 21.8661 29.24" fill="#00ADEE"/>
<path d="M25.1298 25.4214C24.5411 25.1479 24.023 24.7429 23.6155 24.2376C23.208 23.7323 22.9219 23.1402 22.7793 22.5069C21.4582 16.7528 21.2069 10.8047 22.0379 4.95966C22.1142 4.42579 22.2535 3.90284 22.4529 3.40178C22.5095 3.22833 22.6053 3.07026 22.7329 2.93986C22.8605 2.80947 23.0164 2.71027 23.1886 2.64998C23.3608 2.58969 23.5446 2.56993 23.7256 2.59224C23.9067 2.61455 24.0802 2.67833 24.2326 2.77862C24.4395 2.9219 24.6283 3.08906 24.7966 3.27555C27.6508 6.60625 32.9545 15.3793 35.1196 19.05C37.8192 23.6555 44.0189 35.2327 44.5681 36.7451C44.6021 36.8225 44.6081 36.9094 44.5851 36.9907C44.5621 37.072 44.5114 37.1428 44.4419 37.1909C44.2782 37.3023 44.1155 37.3615 43.7005 36.9089C41.2829 34.4686 35.6984 29.7301 26.4955 25.9775C26.0122 25.7842 25.5824 25.6136 25.1741 25.4203" fill="#00ADEE"/>
<path d="M19.8261 23.6623C20.0115 25.5386 20.107 26.5165 18.5798 28.1119C15.659 30.8495 12.4227 33.2297 8.93908 35.202C7.09169 36.2894 5.16259 37.2315 3.1692 38.0199C1.86376 38.4872 0.773242 38.6874 0.201258 37.7458C0.0692746 37.489 0.000427246 37.2044 0.000427246 36.9157C0.000427246 36.627 0.0692746 36.3424 0.201258 36.0856C1.61132 32.2579 5.69025 25.1087 8.36027 20.4589L9.19835 18.975C13.2841 11.9292 18.698 3.30511 19.759 1.91779C19.9148 1.71765 20.1968 1.47999 20.4561 1.62896C20.5387 1.69094 20.6006 1.77647 20.6337 1.8743C20.6667 1.97212 20.6694 2.07767 20.6414 2.17706C20.6414 2.21459 20.5675 2.46703 20.5448 2.56369C18.7947 9.68222 18.9801 16.6529 19.8034 23.6247" fill="#00ADEE"/>
<path d="M25.7973 25.8581C24.0768 25.0735 23.1796 24.6641 22.5564 22.5433C21.6411 18.6551 21.1929 14.6716 21.2214 10.6772C21.2066 8.53371 21.3556 6.39019 21.6672 4.26942C21.9116 2.90485 22.2903 1.85867 23.3797 1.85867C23.6669 1.87525 23.9462 1.95924 24.195 2.10386C24.4437 2.24847 24.6549 2.44964 24.8114 2.69106C27.4222 5.83527 31.5751 12.9333 34.2747 17.524C34.5567 17.9982 34.8376 18.4883 35.1196 19.0068C39.1837 26.0673 43.945 35.0701 44.6056 36.6871C44.7023 36.9168 44.7683 37.2807 44.509 37.4286C44.4129 37.4682 44.3072 37.4781 44.2054 37.457C44.1037 37.4359 44.0106 37.3848 43.9381 37.3103L43.6561 37.0431C38.3684 31.9555 32.2278 28.6327 25.7973 25.8581Z" fill="#00ADEE"/>
<path d="M20.9098 29.9223C22.445 28.8249 23.2455 28.2541 25.397 28.7737C29.2272 29.9323 32.9048 31.5457 36.3511 33.5793C38.2156 34.6366 39.9956 35.8365 41.6752 37.1681C42.7362 38.0585 43.4549 38.9114 42.9068 39.8529C42.7493 40.0946 42.5367 40.2952 42.2863 40.4384C42.036 40.5816 41.7552 40.6631 41.4671 40.6762C37.4485 41.3653 29.2235 41.4177 23.8687 41.4177H22.1857C14.0278 41.4177 3.85948 41.0242 2.16059 40.7945C1.91042 40.7945 1.56927 40.6387 1.56927 40.3351C1.58272 40.2331 1.62658 40.1376 1.69514 40.0609C1.76371 39.9842 1.85378 39.93 1.95363 39.9053L2.3323 39.7938C9.37805 37.7538 15.3253 34.0979 20.9474 29.9154" fill="#00ADEE"/>
<path d="M55.5143 25.2952L56.6116 24.1967L53.5561 21.1424C53.4086 21.0071 53.2145 20.934 53.0144 20.9384C52.8143 20.9427 52.6236 21.0241 52.4821 21.1657C52.3405 21.3072 52.2591 21.4979 52.2548 21.698C52.2504 21.8981 52.3235 22.0922 52.4588 22.2397L55.5143 25.2952Z" fill="white"/>
<path d="M58.8006 26.3846L62.9751 22.2022C63.0514 22.1326 63.1123 22.0479 63.154 21.9534C63.1957 21.8589 63.2173 21.7568 63.2173 21.6535C63.2173 21.5503 63.1957 21.4481 63.154 21.3536C63.1123 21.2592 63.0514 21.1744 62.9751 21.1049C62.8282 20.962 62.6313 20.882 62.4264 20.882C62.2215 20.882 62.0246 20.962 61.8777 21.1049L57.7021 25.2873L56.6048 26.3846L52.4883 30.5011C52.4131 30.5706 52.3531 30.6549 52.312 30.7488C52.271 30.8426 52.2498 30.9439 52.2498 31.0463C52.2498 31.1488 52.271 31.2501 52.312 31.3439C52.3531 31.4377 52.4131 31.5221 52.4883 31.5916C52.5578 31.6682 52.6426 31.7295 52.7372 31.7714C52.8318 31.8133 52.9341 31.835 53.0376 31.835C53.141 31.835 53.2433 31.8133 53.3379 31.7714C53.4325 31.7295 53.5173 31.6682 53.5868 31.5916L57.7033 27.4831L61.8481 31.628C61.9949 31.7711 62.1918 31.8513 62.3968 31.8513C62.6018 31.8513 62.7987 31.7711 62.9455 31.628C63.0218 31.5584 63.0828 31.4737 63.1245 31.3792C63.1662 31.2847 63.1877 31.1826 63.1877 31.0793C63.1877 30.976 63.1662 30.8739 63.1245 30.7794C63.0828 30.685 63.0218 30.6002 62.9455 30.5306L58.8006 26.3846Z" fill="white"/>
<path d="M80.4632 20.4146C80.5951 20.8615 80.7873 21.2879 81.0341 21.6837C81.2638 22.0396 81.5754 22.4842 81.9688 23.0107C82.3668 23.5145 82.7364 24.0421 83.0741 24.5913C83.388 25.1167 83.637 25.6796 83.8155 26.2663C84.0293 27.0086 84.1316 27.7785 84.1192 28.5509C84.1403 29.6138 83.8848 30.664 83.3777 31.5984C82.9324 32.4157 82.2566 33.084 81.4344 33.5202C80.5809 33.9563 79.634 34.1777 78.6756 34.165C77.7242 34.18 76.7839 33.958 75.9397 33.5191C75.1264 33.0855 74.4582 32.4229 74.0179 31.6132C73.5278 30.674 73.2877 29.6245 73.3208 28.5657C73.3299 27.8151 73.4232 27.0692 73.6028 26.3403L76.5697 26.4449C76.4316 27.0658 76.3618 27.6999 76.3615 28.3359C76.3174 29.1515 76.5358 29.9598 76.9847 30.6421C77.1778 30.9182 77.4374 31.1411 77.7396 31.2901C78.0417 31.4392 78.3766 31.5097 78.7132 31.4949C79.0342 31.5112 79.3547 31.4527 79.6493 31.3241C79.9439 31.1954 80.2046 31.0001 80.4109 30.7535C80.8658 30.1042 81.0909 29.3207 81.0489 28.5281C81.0667 27.8449 80.9246 27.1669 80.6338 26.5484C80.2722 25.8652 79.8478 25.2173 79.3659 24.6129C78.9504 24.0889 78.5686 23.5389 78.2231 22.9664C77.8956 22.4176 77.6461 21.8259 77.4816 21.2083C77.2756 20.4199 77.1904 19.6047 77.2292 18.7908H80.2483C80.2415 19.34 80.3165 19.887 80.4701 20.4146" fill="white"/>
<path d="M88.7621 33.5338C87.9613 33.1525 87.2906 32.5438 86.8335 31.7838C86.3831 31.0126 86.1522 30.1329 86.166 29.24C86.162 28.8158 86.2093 28.3928 86.307 27.98L89.2738 28.0983C89.2147 28.3786 89.1872 28.6647 89.1919 28.9511C89.1705 29.3071 89.2206 29.6637 89.3391 30C89.4576 30.3363 89.6423 30.6455 89.8822 30.9093C90.1208 31.1532 90.4074 31.345 90.7239 31.4726C91.0404 31.6002 91.3799 31.6609 91.7209 31.6507C92.3831 31.681 93.0306 31.4494 93.5233 31.006C93.7514 30.7849 93.9295 30.5176 94.0459 30.2221C94.1622 29.9265 94.2139 29.6095 94.1976 29.2923C94.2152 28.9905 94.1674 28.6885 94.0575 28.4068C93.9476 28.1252 93.7782 27.8706 93.5608 27.6605C93.0571 27.2473 92.4155 27.0405 91.7653 27.0817H90.9716V24.5925H91.9722C92.5033 24.622 93.0275 24.4674 93.4562 24.1535C93.6301 24.0057 93.7675 23.8197 93.8576 23.61C93.9477 23.4003 93.9882 23.1726 93.9759 22.9447C93.9801 22.7086 93.9331 22.4744 93.8383 22.2581C93.7435 22.0418 93.6031 21.8486 93.4267 21.6916C93.0163 21.3331 92.4887 21.1376 91.9438 21.1424L92.0996 18.6657C92.9902 18.6455 93.8734 18.8307 94.6809 19.2069C95.3841 19.5271 95.9808 20.0421 96.4003 20.6909C96.8131 21.3448 97.0257 22.1055 97.0087 22.8788C97.0183 23.5471 96.841 24.2048 96.4969 24.7778C96.1387 25.3464 95.5986 25.7785 94.9618 26.0003C95.6565 26.2222 96.2451 26.6922 96.6152 27.3205C97.0348 28.0028 97.2486 28.7897 97.2315 29.5902C97.2457 30.425 97.0191 31.2461 96.5788 31.9555C96.1122 32.6751 95.4476 33.2445 94.665 33.5952C93.7351 34.0199 92.7201 34.2253 91.6982 34.1957C90.6738 34.2225 89.6576 34.0066 88.7325 33.5657" fill="white"/>
<path d="M106.59 20.4146C106.72 20.8613 106.909 21.2882 107.154 21.6836C107.384 22.0396 107.696 22.4842 108.089 23.0107C108.487 23.5145 108.857 24.0421 109.194 24.5913C109.512 25.1144 109.761 25.6784 109.936 26.2663C110.152 27.0078 110.255 27.7787 110.239 28.5509C110.261 29.6138 110.005 30.664 109.498 31.5984C109.05 32.4158 108.372 33.084 107.548 33.5202C106.695 33.9571 105.747 34.1784 104.789 34.1649C103.837 34.1803 102.896 33.9583 102.052 33.519C101.241 33.0852 100.576 32.4224 100.139 31.6132C99.6466 30.6747 99.4038 29.6252 99.4342 28.5656C99.4422 27.8151 99.5365 27.0692 99.7162 26.3403L102.682 26.4437C102.55 27.0659 102.483 27.7 102.482 28.3359C102.442 29.1408 102.658 29.9377 103.098 30.6125C103.293 30.8881 103.554 31.1106 103.857 31.2595C104.16 31.4085 104.496 31.4793 104.833 31.4654C105.154 31.4823 105.473 31.424 105.767 31.2953C106.06 31.1665 106.32 30.9709 106.524 30.7239C106.986 30.0769 107.21 29.2911 107.161 28.4986C107.183 27.815 107.04 27.1362 106.746 26.5188C106.385 25.8356 105.96 25.1877 105.478 24.5834C105.065 24.0575 104.684 23.5077 104.336 22.9368C104.015 22.3849 103.766 21.7941 103.595 21.1788C103.393 20.3897 103.308 19.5751 103.343 18.7612H106.367C106.362 19.3104 106.437 19.8574 106.591 20.385" fill="white"/>
<path d="M121.379 32.3705C120.557 32.0303 119.672 31.8683 118.783 31.8952H113.769V29.671H115.289C114.331 29.1187 113.542 28.316 113.006 27.3489C112.432 26.331 112.135 25.1801 112.145 24.0114C112.113 22.9717 112.329 21.9394 112.776 21.0002C113.147 20.2497 113.734 19.6243 114.459 19.2058C115.174 18.8115 115.979 18.6097 116.795 18.6202C117.529 18.6137 118.254 18.7842 118.909 19.1171C119.537 19.4149 120.043 19.9207 120.341 20.5488C120.674 19.9324 121.193 19.4366 121.823 19.1319C122.501 18.7874 123.251 18.6118 124.011 18.6202C124.878 18.6058 125.734 18.8154 126.496 19.2286C127.226 19.6205 127.832 20.2085 128.246 20.9263C128.68 21.6996 128.901 22.5752 128.884 23.4621C128.899 24.3299 128.673 25.1848 128.231 25.932C127.804 26.6511 127.182 27.2349 126.437 27.6161C125.638 28.0223 124.752 28.2261 123.856 28.2097C122.958 28.2262 122.07 28.0253 121.267 27.6241C120.528 27.2534 119.903 26.6895 119.458 25.9923C119.016 25.2754 118.789 24.4464 118.805 23.6043V23.1961C118.832 22.6641 118.672 22.1397 118.353 21.7132C118.209 21.5303 118.023 21.3839 117.812 21.2859C117.6 21.1879 117.369 21.1411 117.136 21.1492C116.863 21.1397 116.592 21.1993 116.348 21.3226C116.105 21.4459 115.896 21.6287 115.742 21.8542C115.351 22.5108 115.172 23.2721 115.23 24.0341C115.181 24.7375 115.28 25.4433 115.52 26.1063C115.76 26.7692 116.136 27.3746 116.624 27.8834C117.56 28.7707 118.773 29.3078 120.059 29.4037L120.726 29.4697C122.019 29.5538 123.255 30.0298 124.271 30.8343C124.719 31.2281 125.083 31.7099 125.338 32.2497C125.593 32.7895 125.735 33.376 125.755 33.9728H122.691C122.637 33.6216 122.493 33.2904 122.273 33.011C122.054 32.7316 121.766 32.5134 121.438 32.3774L121.379 32.3705ZM125.369 25.0576C125.764 24.5993 125.968 24.008 125.94 23.4042C125.968 22.7849 125.756 22.1787 125.346 21.7132C125.159 21.5088 124.929 21.3477 124.673 21.2413C124.417 21.1348 124.141 21.0855 123.863 21.0969C123.587 21.0889 123.311 21.1397 123.055 21.2459C122.8 21.3522 122.569 21.5114 122.38 21.7132C122.006 22.1803 121.802 22.7609 121.802 23.3592C121.802 23.9576 122.006 24.5381 122.38 25.0053C122.568 25.2097 122.798 25.3716 123.054 25.4805C123.309 25.5893 123.586 25.6424 123.863 25.6364C124.14 25.6466 124.416 25.5969 124.672 25.4905C124.928 25.3841 125.158 25.2236 125.346 25.02" fill="white"/>
<path d="M133.245 33.535C132.464 33.1496 131.808 32.5502 131.354 31.8065C130.901 31.0416 130.67 30.1661 130.686 29.2775C130.69 28.7135 130.78 28.1529 130.952 27.6161L133.852 27.7344C133.765 28.1495 133.716 28.5713 133.704 28.9966C133.671 29.6652 133.897 30.3208 134.334 30.8274C134.56 31.0584 134.832 31.2387 135.132 31.3564C135.433 31.474 135.755 31.5263 136.078 31.5097C136.404 31.5367 136.733 31.4912 137.04 31.3765C137.347 31.2618 137.625 31.0807 137.853 30.8462C138.082 30.6116 138.257 30.3294 138.364 30.0197C138.471 29.71 138.508 29.3805 138.473 29.0546V23.4337C138.472 22.9992 138.344 22.5745 138.105 22.2115C137.866 21.8486 137.527 21.5632 137.128 21.3903C136.729 21.2185 136.289 21.1673 135.861 21.2431C135.433 21.3189 135.037 21.5183 134.721 21.8167C134.525 22.028 134.374 22.2772 134.277 22.549C134.18 22.8202 134.139 23.1085 134.157 23.3962C134.153 23.6826 134.181 23.9685 134.239 24.2491L131.213 24.3309C131.132 23.8882 131.092 23.4391 131.093 22.9891C131.078 22.1624 131.32 21.3513 131.784 20.667C132.254 19.9885 132.903 19.4542 133.66 19.1239C134.494 18.7583 135.397 18.5764 136.307 18.5906C137.225 18.5755 138.134 18.7736 138.962 19.1694C139.726 19.5351 140.368 20.1146 140.809 20.8376C141.266 21.62 141.498 22.5126 141.477 23.4189V29.0546C141.499 29.9961 141.274 30.9271 140.824 31.7542C140.397 32.5217 139.748 33.1423 138.962 33.535C138.061 33.9759 137.066 34.1921 136.063 34.165C135.086 34.1877 134.118 33.9716 133.245 33.535Z" fill="white"/>
<path d="M146.756 33.5191C145.962 33.1159 145.301 32.493 144.851 31.7246C144.402 30.921 144.174 30.0126 144.191 29.0922C144.177 28.1757 144.393 27.2703 144.821 26.4597C145.23 25.7005 145.851 25.0767 146.609 24.6641C147.424 24.2257 148.339 24.0062 149.264 24.0273C149.845 24.0215 150.422 24.1297 150.962 24.3457C151.439 24.5368 151.866 24.837 152.208 25.2213V23.1961C152.214 22.8946 152.15 22.5958 152.021 22.3231C151.892 22.0503 151.703 21.8109 151.467 21.6234C150.961 21.2647 150.358 21.0684 149.738 21.0604C149.118 21.0525 148.51 21.2334 147.995 21.579C147.789 21.7268 147.619 21.92 147.5 22.1439C147.38 22.3677 147.314 22.6161 147.306 22.8697L144.227 22.7662C144.225 21.9768 144.487 21.2092 144.97 20.5852C145.479 19.9225 146.158 19.41 146.935 19.1023C147.813 18.7439 148.754 18.5648 149.702 18.5758C150.669 18.5623 151.628 18.7675 152.505 19.1763C153.304 19.5425 153.985 20.1255 154.47 20.8592C154.958 21.587 155.217 22.4455 155.211 23.3223V28.9807C155.242 29.6809 155.126 30.3798 154.871 31.0326C154.615 31.6853 154.226 32.2774 153.728 32.7708C153.18 33.2593 152.541 33.6345 151.847 33.8749C151.153 34.1154 150.419 34.2163 149.686 34.1718C148.659 34.2017 147.641 33.9803 146.72 33.527L146.756 33.5191ZM151.481 30.9605C151.707 30.7499 151.886 30.4935 152.005 30.2083C152.124 29.9231 152.18 29.6159 152.17 29.3071V28.9204C152.179 28.6086 152.122 28.2984 152.003 28.0099C151.885 27.7214 151.707 27.461 151.481 27.2454C150.99 26.811 150.349 26.5825 149.694 26.6075C149.353 26.5869 149.012 26.6362 148.692 26.7524C148.371 26.8685 148.077 27.049 147.829 27.2828C147.581 27.5166 147.383 27.7988 147.247 28.1119C147.112 28.425 147.042 28.7624 147.042 29.1035C147.042 29.4446 147.112 29.7821 147.247 30.0952C147.383 30.4083 147.581 30.6904 147.829 30.9242C148.077 31.158 148.371 31.3385 148.692 31.4547C149.012 31.5708 149.353 31.6201 149.694 31.5996C150.35 31.6244 150.99 31.3955 151.481 30.9605Z" fill="white"/>
<path d="M158.422 30.4635C158.214 29.1741 158.115 27.8693 158.126 26.5631V24.2263C158.098 23.1711 158.335 22.1256 158.815 21.1856C159.243 20.3635 159.903 19.6854 160.714 19.2354C161.559 18.796 162.498 18.5667 163.45 18.5667C164.403 18.5667 165.342 18.796 166.187 19.2354C166.995 19.6819 167.655 20.355 168.086 21.1719C168.566 22.1044 168.802 23.1415 168.775 24.1899V26.5631C168.785 27.8768 168.686 29.1891 168.478 30.4863C168.285 31.6649 168.005 32.8276 167.64 33.9648H164.719C165.422 31.6007 165.776 29.1479 165.772 26.6814V24.3457C165.827 23.5298 165.61 22.7187 165.157 22.0384C164.953 21.7839 164.695 21.5784 164.402 21.437C164.108 21.2957 163.787 21.2222 163.461 21.222C163.136 21.222 162.814 21.2954 162.521 21.4367C162.227 21.5781 161.97 21.7838 161.767 22.0384C161.315 22.7278 161.099 23.5449 161.152 24.3673V26.6814C161.147 29.1475 161.502 31.601 162.205 33.9648H159.238C158.877 32.8186 158.597 31.6487 158.4 30.4635" fill="white"/>
<path d="M178.373 20.4146C178.502 20.8615 178.692 21.2879 178.937 21.6837C179.166 22.0396 179.478 22.4842 179.871 23.0107C180.27 23.5145 180.639 24.0421 180.975 24.5913C181.673 25.7924 182.027 27.1621 181.999 28.5509C182.02 29.6138 181.765 30.6641 181.257 31.5984C180.814 32.417 180.138 33.0858 179.314 33.5202C178.461 33.9571 177.514 34.1784 176.555 34.165C175.604 34.1801 174.664 33.9581 173.819 33.5191C173.007 33.0853 172.339 32.4227 171.899 31.6132C171.408 30.6742 171.168 29.6245 171.202 28.5657C171.21 27.8151 171.304 27.0692 171.483 26.3403L174.449 26.4449C174.315 27.0664 174.246 27.7001 174.242 28.3359C174.198 29.1514 174.416 29.9595 174.864 30.6421C175.058 30.9189 175.319 31.1422 175.623 31.2912C175.926 31.4403 176.262 31.5104 176.6 31.4949C176.92 31.5103 177.239 31.4514 177.532 31.3228C177.826 31.1941 178.085 30.9993 178.291 30.7535C178.749 30.1053 178.974 29.3207 178.929 28.5281C178.95 27.8445 178.808 27.1657 178.514 26.5484C178.152 25.8652 177.727 25.2173 177.246 24.6129C176.83 24.089 176.449 23.539 176.104 22.9664C175.782 22.4145 175.533 21.8237 175.361 21.2083C175.155 20.4199 175.071 19.6047 175.11 18.7908H178.135C178.129 19.34 178.204 19.8872 178.358 20.4146" fill="white"/>
</g>
</g>
</g>
</g>
<defs>
<clipPath id="clip0_1_208">
<rect width="182" height="42" fill="white" transform="translate(0 0.5)"/>
</clipPath>
<clipPath id="clip1_1_208">
<rect width="182" height="40.95" fill="white" transform="translate(0 1.025)"/>
</clipPath>
</defs>
</svg>
